#!OML:ASF F:\VICON\USERDATA\INSTALL\rory3\rory3.ASF
:FULLY-SPECIFIED
:DEGREES
19
root 0.1313690000000004 17.9316 -23.36870000000003 6.744320000000001 -1.76722 -4.919279999999993
lfemur -43.19800000000005 6.530939999999996 -13.388000000000012
ltibia 92.83679999999995
lfoot 8.214280000000002 -13.258999999999997
ltoes -8.626550000000002
rfemur -2.908600000000021 6.968069999999994 33.7653
rtibia 37.84119999999999
rfoot -11.596799999999979 -9.709829999999995
rtoes -17.878200000000035
lowerback nan 1.2532499999999995 5.1447999999999965
upperback -1.1657299999999997 2.886450000000001 2.510369999999998
thorax -9.92401 1.1776599999999993 -0.8730340000000003
lowerneck -18.411 -4.891490000000001 -3.0208599999999994
upperneck 11.048899999999998 -6.41352 3.7743800000000016
head 6.5829699999999995 -2.8966200000000013 0.9999010000000007
lclavicle -3.478730000000001e-14 -3.498609999999998e-14
lhumerus -57.57330000000001 -7.85642 94.25830000000002
lradius 104.605
lwrist 27.379400000000008
lhand -19.86449999999999 5.483830000000004
lfingers nan
lthumb 6.470639999999993 35.365
rclavicle -3.478730000000001e-14 -3.498609999999998e-14
rhumerus -34.81979999999997 14.692999999999996 -98.2075
rradius 119.738
rwrist -27.1572
rhand -18.4574 nan
rfingers nan
rthumb 7.82887 12.334699999999998
20
root 0.15527099999999977 18.0606 -22.831099999999996 6.57786 -1.3813899999999997 -4.825559999999998
lfemur -43.392099999999985 5.86146999999999 -13.939900000000007
ltibia 89.35339999999991
lfoot 6.034089999999999 -12.760399999999995
ltoes -13.7835
rfemur -0.693418000000019 6.43266 33.3928
rtibia 36.21560000000003
rfoot -7.907270000000013 -8.157050000000002
rtoes -18.858800000000013
lowerback nan -0.06690630000000097 1.9420700000000002
upperback -3.3545399999999987 0.9639800000000003 5.317460000000008
thorax -12.792800000000002 0.5693859999999998 4.566199999999995
lowerneck -9.350110000000015 -2.7577900000000013 -6.77490999999999
upperneck 8.61893 -3.12309 3.2833000000000014
head 4.265119999999999 -1.57904 1.9043600000000014
lclavicle 9.54166000000002e-15 -6.043050000000009e-14
lhumerus -63.71820000000002 1.3499099999999968 95.23359999999998
lradius 105.78599999999999
lwrist 26.838299999999997
lhand -19.78179999999999 4.735560000000002
lfingers nan
lthumb 6.5505099999999965 34.6143
rclavicle 9.54166000000002e-15 -6.043050000000009e-14
rhumerus -40.79439999999999 21.52190000000001 -98.0739
rradius 121.33299999999998
rwrist -28.99589999999999
rhand -16.387899999999995 nan
rfingers nan
rthumb 9.825909999999997 15.665399999999993
21
root 0.3072800518513549 18.029274919606006 -19.901243557913055 6.100750464764188 -1.3429476265309137 -4.095495889841835
lfemur -42.981186409040404 4.8553524213263195 -14.450815811835279
ltibia 85.60525628844493
lfoot 5.386933395914726 -12.137046361737328
ltoes -16.557076709134304
rfemur 1.545061112878706 5.929903219414568 32.94804351763189
rtibia 34.15281914465773
rfoot -3.558131001134532 -6.33767774208963
rtoes -18.776660242539705
lowerback nan 0.9810951007551935 3.9375377951167025
upperback -1.2557047196032953 1.4928583817981367 2.3328882496823784
thorax -8.55785211439805 0.8040777826896861 1.2815247737150621
lowerneck -17.699101985182825 -4.082447365878036 -3.2587987257451863
upperneck 10.147199562883054 -5.135317705418705 3.5988153035924815
head 6.151127241690234 -2.2454112887918356 1.3935238719578429
lclavicle 2.850963026027133e-14 1.2621609715964356e-14
lhumerus -59.26075722675295 -3.2922908643815094 92.01467666687873
lradius 105.57881362846834
lwrist 27.714673789250387
lhand -20.05210846415213 4.422468914290206
lfingers nan
lthumb 6.345494461626699 34.35689140283873
rclavicle 2.90410697035014e-14 1.2641144433721932e-14
rhumerus -37.47213293727921 17.083275981877538 -97.25973937444701
rradius 122.1440351960847
rwrist -24.002969843572455
rhand -18.31186700338252 nan
rfingers nan
rthumb 7.923471746451512 15.625980265431025
22
root 0.3899572111256509 18.046024979824505 -20.438730798781634 5.735597419358457 -0.864445517422508 -3.532016266497303
lfemur -42.490033575255566 3.6084116977679987 -15.02035067063819
ltibia 81.43909155924648
lfoot 5.7606796207924145 -11.456614630955091
ltoes -18.034983224051857
rfemur 3.8161461978208315 5.155551436584581 32.35721370726813
rtibia 31.984046781871115
rfoot 1.6711873153296963 -4.379251070700983
rtoes -18.185770194665484
lowerback nan 1.0232904797536941 4.0943455057289935
upperback -0.8773901732739882 1.4775898379500596 2.1141798674110257
thorax -7.253657075841204 0.8205749124422498 1.057338407266111
lowerneck -17.94292311483289 -4.236589408237805 -3.1225926462583766
upperneck 9.916879276164234 -5.32722398954593 3.6971151191544047
head 6.156036235078528 -2.4003167134722285 1.3379030382111143
lclavicle 1.2591864935345795e-14 6.161745667573967e-15
lhumerus -59.571680372652544 -3.259751565452605 91.05209481227897
lradius 105.9434754531526
lwrist 28.17103249767919
lhand -21.272115187451153 5.01276696258928
lfingers nan
lthumb 5.2033351389669695 35.03181578202334
rclavicle 1.3006191735217373e-14 6.124071353295968e-15
rhumerus -36.96455244998308 17.513382591287176 -96.9674406968464
rradius 123.05350541703753
rwrist -19.677545093260566
rhand -20.122088692667273 nan
rfingers nan
rthumb 6.156333613875205 15.786917821182335
